<?xml version="1.0" standalone="no"?>
<!DOCTYPE svg PUBLIC "-//W3C//DTD SVG 20010904//EN"
 "http://www.w3.org/TR/2001/REC-SVG-20010904/DTD/svg10.dtd">
<svg version="1.0" xmlns="http://www.w3.org/2000/svg"
 width="512.000000pt" height="512.000000pt" viewBox="0 0 512.000000 512.000000"
 preserveAspectRatio="xMidYMid meet">
<metadata>
Created by potrace 1.11, written by Peter Selinger 2001-2013
</metadata>
<g transform="translate(0.000000,512.000000) scale(0.100000,-0.100000)"
fill="#000000" stroke="none">
<path d="M4355 4781 c-46 -28 -501 -493 -509 -519 -5 -15 5 -60 29 -133 l37
-111 -249 -250 -250 -250 -86 70 c-589 481 -1388 579 -2065 252 -404 -195
-712 -502 -907 -905 -258 -531 -259 -1142 -4 -1674 102 -214 232 -394 400
-556 289 -278 616 -445 1024 -522 126 -23 426 -28 572 -9 861 114 1539 781
1668 1642 21 141 21 403 1 548 -51 354 -210 709 -434 971 l-60 70 250 251 250
251 107 -35 c68 -22 116 -33 132 -29 13 4 137 119 282 265 225 226 257 262
257 289 0 49 -27 70 -144 110 l-109 38 -38 110 c-49 143 -82 171 -154 126z
m35 -277 c27 -79 43 -96 120 -119 33 -10 60 -21 60 -24 0 -4 -78 -84 -173
-179 l-174 -172 -78 27 -79 28 -25 78 -25 78 174 174 c96 96 176 175 177 175
1 0 11 -29 23 -66z m-2057 -649 c330 -44 684 -201 907 -404 l55 -50 -111 -112
-112 -112 -103 77 c-179 134 -396 229 -624 273 -136 26 -387 23 -525 -6 -299
-63 -540 -192 -749 -402 -160 -159 -273 -338 -345 -547 -126 -364 -105 -753
60 -1101 168 -356 478 -629 858 -756 158 -53 265 -69 461 -69 137 0 190 5 275
23 284 60 515 181 717 374 221 212 361 461 423 755 27 125 37 347 21 467 -35
268 -142 522 -305 730 l-55 70 113 114 114 114 33 -37 c175 -200 311 -461 379
-727 74 -289 68 -640 -15 -931 -54 -189 -159 -399 -283 -568 -79 -107 -281
-304 -392 -382 -114 -81 -312 -185 -433 -227 -474 -166 -1005 -127 -1437 106
-850 458 -1182 1503 -750 2364 247 495 714 847 1255 948 61 11 126 22 145 24
90 10 326 5 423 -8z m52 -669 c57 -15 148 -50 210 -81 111 -55 235 -139 235
-159 0 -6 -49 -60 -109 -120 l-108 -108 -49 35 c-71 50 -162 94 -251 119 -65
19 -101 23 -223 23 -137 -1 -150 -2 -240 -33 -137 -47 -220 -100 -325 -206
-72 -72 -100 -110 -137 -182 -72 -139 -92 -223 -92 -379 0 -227 66 -395 218
-553 171 -179 376 -261 625 -249 260 12 481 136 629 353 181 267 178 639 -7
908 -17 25 -31 48 -31 53 0 5 50 58 111 118 l110 110 25 -30 c162 -196 249
-446 248 -715 -1 -305 -111 -574 -322 -787 -216 -218 -488 -333 -792 -336
-143 -1 -238 13 -364 54 -367 120 -640 414 -748 806 -18 66 -22 106 -22 263
-1 205 11 270 77 435 101 251 318 477 572 596 224 105 514 130 760 65z m-193
-617 c65 -14 178 -66 178 -82 0 -7 -51 -62 -112 -124 -112 -109 -114 -111
-159 -110 -92 1 -159 -66 -159 -158 0 -170 226 -222 300 -69 15 31 21 56 17
78 -5 31 1 40 112 150 64 64 120 116 123 116 4 0 18 -21 32 -47 144 -285 -4
-618 -309 -698 -271 -70 -551 117 -596 401 -51 321 253 610 573 543z"/>
</g>
</svg>
