<?xml version="1.0" standalone="no"?>
<!DOCTYPE svg PUBLIC "-//W3C//DTD SVG 20010904//EN"
 "http://www.w3.org/TR/2001/REC-SVG-20010904/DTD/svg10.dtd">
<svg version="1.0" xmlns="http://www.w3.org/2000/svg"
 width="512.000000pt" height="512.000000pt" viewBox="0 0 512.000000 512.000000"
 preserveAspectRatio="xMidYMid meet">
<metadata>
Created by potrace 1.11, written by Peter Selinger 2001-2013
</metadata>
<g transform="translate(0.000000,512.000000) scale(0.100000,-0.100000)"
fill="#000000" stroke="none">
<path d="M2527 5113 c-32 -8 -47 -56 -47 -150 l0 -88 -53 -1 c-49 -1 -142 -9
-197 -18 -14 -3 -44 -7 -66 -10 -23 -3 -79 -14 -125 -26 -46 -11 -93 -22 -104
-24 -41 -9 -223 -74 -305 -110 -176 -77 -371 -195 -516 -311 -331 -267 -593
-630 -732 -1015 -33 -91 -80 -251 -88 -297 -2 -15 -7 -39 -10 -53 -15 -62 -32
-197 -39 -304 -2 -22 -4 -47 -4 -53 -1 -9 -25 -13 -86 -13 -92 0 -127 -11
-145 -45 -16 -30 -4 -82 23 -98 12 -6 64 -14 116 -17 l94 -5 3 -50 c26 -457
184 -892 453 -1250 412 -549 1032 -885 1716 -930 22 -2 46 -3 53 -4 8 -1 12
-26 12 -91 0 -101 13 -134 57 -145 33 -8 77 10 92 38 6 12 12 62 13 111 l3 89
60 3 c103 5 222 20 300 37 17 4 41 9 55 11 107 21 289 79 420 135 488 208 923
621 1159 1101 103 208 193 494 215 680 2 19 7 60 11 90 3 30 8 80 10 110 2 30
4 58 4 63 1 4 38 7 84 7 104 0 124 6 142 41 20 37 19 59 -5 89 -17 23 -26 25
-119 28 -67 3 -101 8 -102 15 -1 7 -2 30 -4 52 -3 49 -14 160 -20 200 -3 17
-7 42 -9 58 -3 15 -7 35 -10 45 -3 9 -7 33 -10 53 -3 20 -10 49 -16 65 -6 16
-11 30 -10 32 8 16 -81 262 -145 397 -197 418 -519 767 -941 1019 -83 49 -251
127 -354 164 -89 33 -284 88 -335 95 -16 3 -41 8 -55 11 -37 8 -86 15 -165 22
-38 3 -86 7 -105 9 -19 2 -40 4 -47 4 -7 1 -12 35 -15 102 -3 91 -5 102 -26
117 -23 18 -53 23 -85 15z m-49 -475 c2 -43 -1 -78 -5 -79 -4 0 -19 -2 -33 -4
-14 -2 -57 -6 -97 -9 -198 -17 -437 -85 -653 -188 -73 -34 -285 -160 -300
-178 -3 -3 -34 -28 -70 -55 -90 -68 -263 -243 -341 -345 -68 -89 -157 -229
-202 -316 -104 -205 -189 -495 -203 -694 -3 -41 -7 -84 -9 -95 -2 -11 -4 -23
-4 -27 -1 -5 -37 -8 -80 -8 l-80 0 4 53 c10 113 16 171 19 176 2 3 6 29 10 58
16 140 109 427 191 592 207 417 580 786 995 984 228 109 497 185 716 203 43 3
80 7 82 9 1 1 15 2 30 1 27 -1 27 -2 30 -78z m300 68 c470 -37 955 -268 1309
-624 311 -312 513 -694 593 -1117 16 -90 22 -131 35 -282 l4 -43 -79 0 c-44 0
-80 1 -81 3 0 1 -3 34 -5 72 -4 60 -18 150 -40 270 -41 226 -236 657 -310 685
-37 15 -50 12 -78 -12 -40 -36 -39 -67 1 -134 153 -253 244 -540 268 -836 l3
-48 -201 0 c-111 0 -212 -3 -225 -6 -24 -7 -52 -51 -52 -81 0 -10 9 -29 20
-43 l19 -25 218 -5 218 -5 -1 -25 c-13 -242 -83 -505 -192 -715 -41 -80 -125
-217 -156 -257 -12 -14 -32 -41 -46 -59 -14 -19 -52 -63 -85 -99 -320 -346
-731 -547 -1217 -594 l-58 -6 0 211 c0 174 -3 214 -16 234 -28 43 -96 41 -131
-4 -9 -11 -12 -77 -13 -228 l0 -211 -52 4 c-45 4 -212 25 -228 29 -3 1 -32 7
-65 14 -217 48 -472 168 -684 324 -72 54 -106 59 -142 23 -30 -29 -34 -74 -11
-101 27 -31 148 -117 251 -179 228 -135 539 -239 782 -262 90 -8 133 -12 142
-13 4 -1 7 -37 7 -80 l0 -79 -52 4 c-307 24 -547 87 -808 211 -356 169 -688
471 -904 820 -159 258 -275 601 -301 893 -4 36 -8 84 -10 108 l-5 42 80 0 c44
0 80 -3 81 -7 0 -5 2 -21 4 -38 2 -16 6 -57 9 -90 20 -219 88 -452 197 -672
55 -113 158 -279 202 -328 10 -11 35 -41 54 -67 47 -61 83 -77 128 -55 54 26
55 93 3 149 -171 180 -358 568 -402 833 -15 93 -26 167 -30 218 l-6 57 205 0
c128 0 213 4 228 11 34 15 51 50 42 88 -12 55 -38 61 -269 61 l-205 0 4 38 c2
20 6 62 9 92 9 95 43 251 80 362 204 622 724 1088 1366 1226 52 12 127 24 165
27 39 4 85 8 103 10 l32 3 0 -202 c0 -110 3 -211 6 -224 9 -31 57 -55 95 -47
53 12 59 40 59 269 l0 205 43 -4 c135 -14 170 -19 252 -35 185 -38 374 -110
542 -207 118 -67 137 -71 175 -32 25 25 29 35 24 62 -8 43 -43 71 -173 139
-163 86 -385 168 -518 192 -124 23 -208 35 -255 37 -93 4 -90 1 -90 90 l0 78
38 -4 c20 -2 65 -6 100 -9z m1937 -2268 c-2 -24 -7 -74 -10 -113 -17 -212
-107 -519 -211 -725 -243 -481 -666 -867 -1154 -1053 -111 -42 -285 -93 -350
-102 -25 -4 -63 -10 -85 -15 -22 -5 -71 -11 -110 -15 -38 -3 -89 -8 -112 -11
l-43 -5 0 81 c0 44 3 80 8 81 21 2 84 8 137 13 256 23 583 136 820 284 368
231 652 567 811 960 78 196 140 479 138 640 0 21 3 22 83 22 l82 0 -4 -42z"/>
<path d="M3792 4052 c-30 -23 -37 -67 -16 -99 9 -14 55 -64 103 -112 93 -92
121 -105 166 -75 30 19 41 65 23 97 -15 28 -82 101 -151 165 -51 47 -87 53
-125 24z"/>
<path d="M2525 3588 c-35 -20 -40 -40 -45 -178 l-5 -134 -42 -8 c-66 -11 -180
-54 -240 -90 -60 -36 -172 -139 -222 -205 -54 -70 -118 -233 -124 -313 -1 -19
-9 -20 -129 -20 -72 0 -138 -5 -151 -11 -34 -15 -51 -50 -42 -88 11 -50 44
-61 190 -61 92 0 127 -3 129 -12 2 -7 10 -40 17 -73 38 -179 181 -368 349
-463 62 -35 191 -80 238 -84 l32 -2 0 -127 c0 -70 4 -139 9 -152 14 -35 63
-53 101 -37 17 7 34 18 38 24 4 6 9 74 12 150 l5 139 61 13 c260 53 488 273
550 530 9 38 18 75 20 82 3 9 37 12 129 12 91 0 134 4 154 15 49 25 52 99 5
129 -18 13 -53 16 -159 16 l-135 0 -1 28 c-1 41 -6 60 -34 139 -69 189 -235
355 -426 427 -57 21 -135 39 -156 37 -5 -1 -10 64 -13 145 -5 140 -6 146 -30
164 -28 22 -56 25 -85 8z m-45 -713 l0 -235 -235 0 c-267 0 -248 -8 -214 93
37 110 96 194 189 270 60 49 179 100 248 106 9 1 12 -52 12 -234z m261 211
c87 -30 140 -63 205 -126 67 -65 109 -131 140 -217 39 -112 59 -103 -211 -103
l-235 0 0 235 c0 269 -9 250 101 211z m-261 -841 c0 -270 9 -250 -103 -211
-103 37 -188 97 -260 186 -38 47 -93 165 -102 218 l-7 42 236 0 236 0 0 -235z
m630 218 c-1 -33 -48 -153 -81 -204 -76 -119 -224 -223 -348 -244 l-41 -7 0
236 0 236 235 0 c217 0 235 -1 235 -17z"/>
</g>
</svg>
