<?xml version="1.0" standalone="no"?>
<!DOCTYPE svg PUBLIC "-//W3C//DTD SVG 20010904//EN"
 "http://www.w3.org/TR/2001/REC-SVG-20010904/DTD/svg10.dtd">
<svg version="1.0" xmlns="http://www.w3.org/2000/svg"
 width="512.000000pt" height="512.000000pt" viewBox="0 0 512.000000 512.000000"
 preserveAspectRatio="xMidYMid meet">
<metadata>
Created by potrace 1.11, written by Peter Selinger 2001-2013
</metadata>
<g transform="translate(0.000000,512.000000) scale(0.100000,-0.100000)"
fill="#000000" stroke="none">
<path d="M2245 4448 c-113 -12 -290 -54 -409 -95 -471 -162 -864 -511 -1081
-958 -460 -945 -71 -2081 870 -2541 526 -257 1144 -257 1670 0 378 185 688
495 870 871 499 1026 -7 2257 -1081 2628 -265 92 -567 126 -839 95z m548 -187
c350 -71 655 -238 908 -497 241 -248 392 -534 461 -876 20 -98 23 -142 23
-333 -1 -231 -12 -314 -66 -499 -111 -374 -384 -734 -724 -954 -96 -62 -292
-155 -400 -190 -188 -61 -298 -77 -535 -77 -237 0 -347 16 -535 77 -108 35
-304 128 -400 190 -340 220 -613 580 -724 954 -54 185 -65 268 -66 499 0 191
3 235 23 333 69 342 220 628 461 876 274 281 596 447 989 511 133 22 446 14
585 -14z"/>
<path d="M2836 3975 c-300 -62 -527 -238 -656 -506 -66 -138 -84 -220 -84
-389 0 -169 18 -251 84 -389 54 -113 113 -194 203 -277 348 -323 886 -323
1234 0 126 117 218 271 265 441 31 115 31 335 0 450 -45 164 -137 319 -253
431 -169 160 -368 242 -604 250 -79 2 -143 -1 -189 -11z m340 -175 c336 -86
564 -377 564 -720 0 -288 -166 -550 -425 -671 -492 -229 -1055 129 -1055 671
0 341 227 632 560 719 103 27 251 27 356 1z"/>
<path d="M2686 3154 c-74 -23 -159 -112 -181 -189 -65 -224 136 -425 360 -360
80 23 166 107 189 185 34 115 12 206 -73 291 -85 84 -180 108 -295 73z m154
-169 c16 -9 36 -29 45 -45 31 -60 10 -137 -45 -165 -110 -57 -222 55 -165 165
29 55 105 76 165 45z"/>
</g>
</svg>
